  0
SECTION
  2
HEADER
  9
$ACADVER
  1
AC1009
  9
$INSBASE
 10
0.0
 20
0.0
 30
0.0
  9
$EXTMIN
 10
0.0
 20
0.0
 30
0.0
  9
$EXTMAX
 10
220.0
 20
220.0
 30
0.0
  9
$LIMMIN
 10
0.0
 20
0.0
  9
$LIMMAX
 10
12.0
 20
9.0
  9
$ORTHOMODE
 70
     1
  9
$REGENMODE
 70
     1
  9
$FILLMODE
 70
     1
  9
$QTEXTMODE
 70
     0
  9
$MIRRTEXT
 70
     0
  9
$DRAGMODE
 70
     2
  9
$LTSCALE
 40
1.0
  9
$OSMODE
 70
    39
  9
$ATTMODE
 70
     1
  9
$TEXTSIZE
 40
0.2
  9
$TRACEWID
 40
0.05
  9
$TEXTSTYLE
  7
STANDARD
  9
$CLAYER
  8
0
  9
$CELTYPE
  6
BYLAYER
  9
$CECOLOR
 62
   256
  9
$DIMSCALE
 40
1.0
  9
$DIMASZ
 40
0.18
  9
$DIMEXO
 40
0.0625
  9
$DIMDLI
 40
0.38
  9
$DIMRND
 40
0.0
  9
$DIMDLE
 40
0.0
  9
$DIMEXE
 40
0.18
  9
$DIMTP
 40
0.0
  9
$DIMTM
 40
0.0
  9
$DIMTXT
 40
0.18
  9
$DIMCEN
 40
0.09
  9
$DIMTSZ
 40
0.0
  9
$DIMTOL
 70
     0
  9
$DIMLIM
 70
     0
  9
$DIMTIH
 70
     1
  9
$DIMTOH
 70
     1
  9
$DIMSE1
 70
     0
  9
$DIMSE2
 70
     0
  9
$DIMTAD
 70
     0
  9
$DIMZIN
 70
     0
  9
$DIMBLK
  1

  9
$DIMASO
 70
     1
  9
$DIMSHO
 70
     1
  9
$DIMPOST
  1

  9
$DIMAPOST
  1

  9
$DIMALT
 70
     0
  9
$DIMALTD
 70
     2
  9
$DIMALTF
 40
25.3999999999999986
  9
$DIMLFAC
 40
1.0
  9
$DIMTOFL
 70
     0
  9
$DIMTVP
 40
0.0
  9
$DIMTIX
 70
     0
  9
$DIMSOXD
 70
     0
  9
$DIMSAH
 70
     0
  9
$DIMBLK1
  1

  9
$DIMBLK2
  1

  9
$DIMSTYLE
  2
STANDARD
  9
$DIMCLRD
 70
     0
  9
$DIMCLRE
 70
     0
  9
$DIMCLRT
 70
     0
  9
$DIMTFAC
 40
1.0
  9
$DIMGAP
 40
0.09
  9
$LUNITS
 70
     2
  9
$LUPREC
 70
     4
  9
$SKETCHINC
 40
0.1
  9
$FILLETRAD
 40
0.0
  9
$AUNITS
 70
     0
  9
$AUPREC
 70
     0
  9
$MENU
  1
.
  9
$ELEVATION
 40
0.0
  9
$PELEVATION
 40
0.0
  9
$THICKNESS
 40
0.0
  9
$LIMCHECK
 70
     0
  9
$BLIPMODE
 70
     0
  9
$CHAMFERA
 40
0.0
  9
$CHAMFERB
 40
0.0
  9
$SKPOLY
 70
     0
  9
$TDCREATE
 40
2458208.7704745368100703
  9
$TDUPDATE
 40
2458351.0008449079468846
  9
$TDINDWG
 40
0.413912037
  9
$TDUSRTIMER
 40
0.413912037
  9
$USRTIMER
 70
     1
  9
$ANGBASE
 50
0.0
  9
$ANGDIR
 70
     0
  9
$PDMODE
 70
     0
  9
$PDSIZE
 40
0.0
  9
$PLINEWID
 40
0.0
  9
$COORDS
 70
     1
  9
$SPLFRAME
 70
     0
  9
$SPLINETYPE
 70
     6
  9
$SPLINESEGS
 70
     8
  9
$ATTDIA
 70
     1
  9
$ATTREQ
 70
     1
  9
$HANDLING
 70
     1
  9
$HANDSEED
  5
9A7
  9
$SURFTAB1
 70
     6
  9
$SURFTAB2
 70
     6
  9
$SURFTYPE
 70
     6
  9
$SURFU
 70
     6
  9
$SURFV
 70
     6
  9
$UCSNAME
  2

  9
$UCSORG
 10
0.0
 20
0.0
 30
0.0
  9
$UCSXDIR
 10
1.0
 20
0.0
 30
0.0
  9
$UCSYDIR
 10
0.0
 20
1.0
 30
0.0
  9
$PUCSNAME
  2

  9
$PUCSORG
 10
0.0
 20
0.0
 30
0.0
  9
$PUCSXDIR
 10
1.0
 20
0.0
 30
0.0
  9
$PUCSYDIR
 10
0.0
 20
1.0
 30
0.0
  9
$USERI1
 70
     0
  9
$USERI2
 70
     0
  9
$USERI3
 70
     0
  9
$USERI4
 70
     0
  9
$USERI5
 70
     0
  9
$USERR1
 40
0.0
  9
$USERR2
 40
0.0
  9
$USERR3
 40
0.0
  9
$USERR4
 40
0.0
  9
$USERR5
 40
0.0
  9
$WORLDVIEW
 70
     1
  9
$SHADEDGE
 70
     3
  9
$SHADEDIF
 70
    70
  9
$TILEMODE
 70
     1
  9
$MAXACTVP
 70
    64
  9
$PLIMCHECK
 70
     0
  9
$PEXTMIN
 10
0.0
 20
0.0
 30
0.0
  9
$PEXTMAX
 10
0.0
 20
0.0
 30
0.0
  9
$PLIMMIN
 10
0.0
 20
0.0
  9
$PLIMMAX
 10
12.0
 20
9.0
  9
$UNITMODE
 70
     0
  9
$VISRETAIN
 70
     1
  9
$PLINEGEN
 70
     0
  9
$PSLTSCALE
 70
     1
  0
ENDSEC
  0
SECTION
  2
TABLES
  0
TABLE
  2
VPORT
 70
     1
  0
VPORT
  2
*ACTIVE
 70
     0
 10
0.0
 20
0.0
 11
1.0
 21
1.0
 12
109.8276278620133013
 22
106.7938807708710982
 13
0.0
 23
0.0
 14
0.5
 24
0.5
 15
0.5
 25
0.5
 16
0.0
 26
0.0
 36
1.0
 17
0.0
 27
0.0
 37
0.0
 40
289.2576527632397756
 41
1.3894052044609659
 42
50.0
 43
0.0
 44
0.0
 50
0.0
 51
0.0
 71
     0
 72
  1000
 73
     1
 74
     3
 75
     1
 76
     1
 77
     0
 78
     0
  0
ENDTAB
  0
TABLE
  2
LTYPE
 70
     2
  0
LTYPE
  2
CONTINUOUS
 70
     0
  3
Solid line
 72
    65
 73
     0
 40
0.0
  0
ENDTAB
  0
TABLE
  2
LAYER
 70
     3
  0
LAYER
  2
0
 70
     0
 62
     7
  6
CONTINUOUS
  0
LAYER
  2
ADDITIONALS
 70
     0
 62
    -7
  6
CONTINUOUS
  0
LAYER
  2
DEFPOINTS
 70
     0
 62
    -7
  6
CONTINUOUS
  0
ENDTAB
  0
TABLE
  2
STYLE
 70
     2
  0
STYLE
  2
STANDARD
 70
     0
 40
0.0
 41
1.0
 50
0.0
 71
     0
 42
0.2
  3
txt
  4

  0
STYLE
  2
ANNOTATIVE
 70
     0
 40
0.0
 41
1.0
 50
0.0
 71
     0
 42
0.2
  3
txt
  4

  0
ENDTAB
  0
TABLE
  2
VIEW
 70
     3
  0
ENDTAB
  0
TABLE
  2
UCS
 70
     0
  0
ENDTAB
  0
TABLE
  2
APPID
 70
    10
  0
APPID
  2
ACAD
 70
     0
  0
APPID
  2
ACADANNOPO
 70
     0
  0
APPID
  2
ACADANNOTATIVE
 70
     0
  0
APPID
  2
ACAD_DSTYLE_DIMJAG
 70
     0
  0
APPID
  2
ACAD_DSTYLE_DIMTALN
 70
     0
  0
APPID
  2
ACAD_MLEADERVER
 70
     0
  0
APPID
  2
ACAD_NAV_VCDISPLAY
 70
     0
  0
APPID
  2
ACAD_EXEMPT_FROM_CAD_STANDARDS
 70
     0
  0
APPID
  2
ACAECLAYERSTANDARD
 70
     0
  0
APPID
  2
ACCMTRANSPARENCY
 70
     0
  0
ENDTAB
  0
TABLE
  2
DIMSTYLE
 70
     3
  0
DIMSTYLE
  2
STANDARD
 70
     0
  3

  4

  5

  6

  7

 40
1.0
 41
0.18
 42
0.0625
 43
0.38
 44
0.18
 45
0.0
 46
0.0
 47
0.0
 48
0.0
140
0.18
141
0.09
142
0.0
143
25.3999999999999986
144
1.0
145
0.0
146
1.0
147
0.09
 71
     0
 72
     0
 73
     1
 74
     1
 75
     0
 76
     0
 77
     0
 78
     0
170
     0
171
     2
172
     0
173
     0
174
     0
175
     0
176
     0
177
     0
178
     0
  0
DIMSTYLE
  2
ANNOTATIVE
 70
     0
  3

  4

  5

  6

  7

 40
0.0
 41
0.18
 42
0.0625
 43
0.38
 44
0.18
 45
0.0
 46
0.0
 47
0.0
 48
0.0
140
0.18
141
0.09
142
0.0
143
25.3999999999999986
144
1.0
145
0.0
146
1.0
147
0.09
 71
     0
 72
     0
 73
     1
 74
     1
 75
     0
 76
     0
 77
     0
 78
     0
170
     0
171
     2
172
     0
173
     0
174
     0
175
     0
176
     0
177
     0
178
     0
  0
ENDTAB
  0
ENDSEC
  0
SECTION
  2
BLOCKS
  0
BLOCK
  8
0
  2
$MODEL_SPACE
 70
     0
 10
0.0
 20
0.0
 30
0.0
  3
$MODEL_SPACE
  1

  0
ENDBLK
  5
21
  8
0
  0
BLOCK
 67
     1
  8
0
  2
$PAPER_SPACE
 70
     0
 10
0.0
 20
0.0
 30
0.0
  3
$PAPER_SPACE
  1

  0
ENDBLK
  5
5B
 67
     1
  8
0
  0
ENDSEC
  0
SECTION
  2
ENTITIES
  0
CIRCLE
  5
219
  8
0
 62
     1
 10
5.5
 20
214.5
 30
0.0
 40
1.5
  0
CIRCLE
  5
21A
  8
0
 62
     1
 10
214.5
 20
214.5
 30
0.0
 40
1.5
  0
CIRCLE
  5
21B
  8
0
 62
     1
 10
214.5
 20
5.5000000000000284
 30
0.0
 40
1.5
  0
CIRCLE
  5
21D
  8
0
 62
     1
 10
5.5
 20
5.5000000000000284
 30
0.0
 40
1.5
  0
CIRCLE
  5
497
  8
0
 62
     1
 10
110.0
 20
89.0
 30
0.0
 40
1.5
  0
CIRCLE
  5
499
  8
0
 62
     1
 10
110.0
 20
130.0
 30
0.0
 40
1.5
  0
POLYLINE
  5
5E6
  8
0
 62
     1
 66
     1
 10
0.0
 20
0.0
 30
0.0
 70
     1
  0
VERTEX
  5
94F
  8
0
 62
     1
 10
30.0
 20
62.5
 30
0.0
  0
VERTEX
  5
950
  8
0
 62
     1
 10
30.0
 20
87.5
 30
0.0
  0
VERTEX
  5
951
  8
0
 62
     1
 10
29.0
 20
88.4999999999999858
 30
0.0
  0
VERTEX
  5
952
  8
0
 62
     1
 10
21.0
 20
88.4999999999999858
 30
0.0
  0
VERTEX
  5
953
  8
0
 62
     1
 10
20.0
 20
87.5
 30
0.0
  0
VERTEX
  5
954
  8
0
 62
     1
 10
20.0
 20
62.5
 30
0.0
  0
VERTEX
  5
955
  8
0
 62
     1
 10
21.0
 20
61.5
 30
0.0
  0
VERTEX
  5
956
  8
0
 62
     1
 10
29.0
 20
61.5
 30
0.0
  0
SEQEND
  5
957
  8
0
 62
     1
  0
POLYLINE
  5
5E9
  8
0
 62
     1
 66
     1
 10
0.0
 20
0.0
 30
0.0
 70
     1
  0
VERTEX
  5
958
  8
0
 62
     1
 10
70.0
 20
85.0
 30
0.0
  0
VERTEX
  5
959
  8
0
 62
     1
 10
90.0
 20
105.0
 30
0.0
  0
VERTEX
  5
95A
  8
0
 62
     1
 10
90.0
 20
115.0
 30
0.0
  0
VERTEX
  5
95B
  8
0
 62
     1
 10
70.0
 20
135.0
 30
0.0
  0
VERTEX
  5
95C
  8
0
 62
     1
 10
50.0
 20
135.0
 30
0.0
  0
VERTEX
  5
95D
  8
0
 62
     1
 10
30.0
 20
115.0
 30
0.0
  0
VERTEX
  5
95E
  8
0
 62
     1
 10
30.0
 20
105.0
 30
0.0
  0
VERTEX
  5
95F
  8
0
 62
     1
 10
50.0
 20
85.0
 30
0.0
  0
SEQEND
  5
960
  8
0
 62
     1
  0
POLYLINE
  5
5EA
  8
0
 62
     1
 66
     1
 10
0.0
 20
0.0
 30
0.0
 70
     1
  0
VERTEX
  5
961
  8
0
 62
     1
 10
42.0
 20
35.0
 30
0.0
  0
VERTEX
  5
962
  8
0
 62
     1
 10
178.0
 20
35.0
 30
0.0
  0
VERTEX
  5
963
  8
0
 62
     1
 10
138.0
 20
75.0
 30
0.0
  0
VERTEX
  5
964
  8
0
 62
     1
 10
82.0
 20
75.0
 30
0.0
  0
SEQEND
  5
965
  8
0
 62
     1
  0
POLYLINE
  5
5EB
  8
0
 62
     1
 66
     1
 10
0.0
 20
0.0
 30
0.0
 70
     1
  0
VERTEX
  5
966
  8
0
 62
     1
 10
82.0
 20
145.0
 30
0.0
  0
VERTEX
  5
967
  8
0
 62
     1
 10
138.0
 20
145.0
 30
0.0
  0
VERTEX
  5
968
  8
0
 62
     1
 10
178.0
 20
185.0
 30
0.0
  0
VERTEX
  5
969
  8
0
 62
     1
 10
42.0
 20
185.0
 30
0.0
  0
SEQEND
  5
96A
  8
0
 62
     1
  0
CIRCLE
  5
623
  8
0
 62
     3
 10
31.0
 20
185.0
 30
0.0
 40
1.0
  0
LINE
  5
7A0
  8
0
 62
     1
 10
30.0
 20
132.5
 30
0.0
 11
30.0
 21
157.5
 31
0.0
  0
LINE
  5
7A1
  8
0
 62
     1
 10
30.0
 20
157.5
 30
0.0
 11
29.0
 21
158.5
 31
0.0
  0
LINE
  5
7A2
  8
0
 62
     1
 10
29.0
 20
158.5
 30
0.0
 11
21.0
 21
158.5
 31
0.0
  0
LINE
  5
7A3
  8
0
 62
     1
 10
21.0
 20
158.5
 30
0.0
 11
20.0
 21
157.5
 31
0.0
  0
LINE
  5
7A4
  8
0
 62
     1
 10
20.0
 20
157.5
 30
0.0
 11
20.0
 21
132.5
 31
0.0
  0
LINE
  5
7A5
  8
0
 62
     1
 10
20.0
 20
132.5
 30
0.0
 11
21.0
 21
131.5
 31
0.0
  0
LINE
  5
7A6
  8
0
 62
     1
 10
21.0
 20
131.5
 30
0.0
 11
29.0
 21
131.5
 31
0.0
  0
LINE
  5
7A7
  8
0
 62
     1
 10
29.0
 20
131.5
 30
0.0
 11
30.0
 21
132.5
 31
0.0
  0
CIRCLE
  5
7B0
  8
0
 62
     1
 10
15.0
 20
145.0
 30
0.0
 40
1.5
  0
CIRCLE
  5
7B3
  8
0
 62
     1
 10
35.0
 20
145.0
 30
0.0
 40
1.5
  0
CIRCLE
  5
7B5
  8
0
 62
     1
 10
15.0
 20
75.0
 30
0.0
 40
1.5
  0
CIRCLE
  5
7B7
  8
0
 62
     1
 10
35.0
 20
75.0
 30
0.0
 40
1.5
  0
POLYLINE
  5
85F
  8
0
 62
     1
 66
     1
 10
0.0
 20
0.0
 30
0.0
 70
     1
  0
VERTEX
  5
96B
  8
0
 62
     1
 10
150.0
 20
135.0
 30
0.0
  0
VERTEX
  5
96C
  8
0
 62
     1
 10
160.0
 20
135.0
 30
0.0
  0
VERTEX
  5
96D
  8
0
 62
     1
 10
180.0
 20
115.0
 30
0.0
  0
VERTEX
  5
96E
  8
0
 62
     1
 10
180.0
 20
105.0
 30
0.0
  0
VERTEX
  5
96F
  8
0
 62
     1
 10
160.0
 20
85.0
 30
0.0
  0
VERTEX
  5
970
  8
0
 62
     1
 10
150.0
 20
85.0
 30
0.0
  0
VERTEX
  5
971
  8
0
 62
     1
 10
130.0
 20
105.0
 30
0.0
  0
VERTEX
  5
972
  8
0
 62
     1
 10
130.0
 20
115.0
 30
0.0
  0
SEQEND
  5
973
  8
0
 62
     1
  0
CIRCLE
  5
89E
  8
0
 62
     1
 10
185.0000006051064076
 20
110.0000001214973935
 30
0.0
 40
1.5
  0
CIRCLE
  5
89F
  8
0
 62
     1
 10
205.0
 20
110.0
 30
0.0
 40
1.5
  0
POLYLINE
  5
8DB
  8
0
 62
     7
 66
     1
 10
0.0
 20
0.0
 30
0.0
 70
     1
  0
VERTEX
  5
976
  8
0
 62
     7
 10
32.0
 20
25.0000000000000284
 30
0.0
  0
VERTEX
  5
977
  8
0
 62
     7
 10
7.0
 20
0.0
 30
0.0
  0
VERTEX
  5
978
  8
0
 62
     7
 10
3.0
 20
0.0
 30
0.0
  0
VERTEX
  5
979
  8
0
 62
     7
 10
0.0
 20
3.0
 30
0.0
  0
VERTEX
  5
97A
  8
0
 62
     7
 10
0.0
 20
7.0
 30
0.0
  0
VERTEX
  5
97B
  8
0
 62
     7
 10
20.0
 20
27.0000000000000284
 30
0.0
  0
VERTEX
  5
97C
  8
0
 62
     7
 10
20.0
 20
47.0
 30
0.0
  0
VERTEX
  5
97D
  8
0
 62
     7
 10
10.0
 20
57.0
 30
0.0
  0
VERTEX
  5
97E
  8
0
 62
     7
 10
10.0
 20
95.0
 30
0.0
  0
VERTEX
  5
97F
  8
0
 62
     7
 10
20.0
 20
105.0
 30
0.0
  0
VERTEX
  5
980
  8
0
 62
     7
 10
20.0
 20
115.0
 30
0.0
  0
VERTEX
  5
981
  8
0
 62
     7
 10
10.0
 20
125.0
 30
0.0
  0
VERTEX
  5
982
  8
0
 62
     7
 10
10.0
 20
163.0
 30
0.0
  0
VERTEX
  5
983
  8
0
 62
     7
 10
20.0
 20
173.0
 30
0.0
  0
VERTEX
  5
984
  8
0
 62
     7
 10
20.0
 20
193.0
 30
0.0
  0
VERTEX
  5
985
  8
0
 62
     7
 10
0.0
 20
213.0
 30
0.0
  0
VERTEX
  5
986
  8
0
 62
     7
 10
0.0
 20
217.0
 30
0.0
  0
VERTEX
  5
987
  8
0
 62
     7
 10
3.0
 20
220.0
 30
0.0
  0
VERTEX
  5
988
  8
0
 62
     7
 10
7.0
 20
220.0
 30
0.0
  0
VERTEX
  5
989
  8
0
 62
     7
 10
32.0
 20
195.0
 30
0.0
  0
VERTEX
  5
98A
  8
0
 62
     7
 10
188.0
 20
195.0
 30
0.0
  0
VERTEX
  5
98B
  8
0
 62
     7
 10
213.0
 20
220.0
 30
0.0
  0
VERTEX
  5
98C
  8
0
 62
     7
 10
217.0
 20
220.0
 30
0.0
  0
VERTEX
  5
98D
  8
0
 62
     7
 10
220.0
 20
217.0
 30
0.0
  0
VERTEX
  5
98E
  8
0
 62
     7
 10
220.0
 20
213.0
 30
0.0
  0
VERTEX
  5
98F
  8
0
 62
     7
 10
180.0
 20
173.0
 30
0.0
  0
VERTEX
  5
990
  8
0
 62
     7
 10
180.0
 20
153.0
 30
0.0
  0
VERTEX
  5
991
  8
0
 62
     7
 10
210.0
 20
123.0
 30
0.0
  0
VERTEX
  5
992
  8
0
 62
     7
 10
210.0
 20
97.0
 30
0.0
  0
VERTEX
  5
993
  8
0
 62
     7
 10
180.0
 20
67.0
 30
0.0
  0
VERTEX
  5
994
  8
0
 62
     7
 10
180.0
 20
47.0
 30
0.0
  0
VERTEX
  5
995
  8
0
 62
     7
 10
220.0
 20
7.0
 30
0.0
  0
VERTEX
  5
996
  8
0
 62
     7
 10
220.0
 20
3.0
 30
0.0
  0
VERTEX
  5
997
  8
0
 62
     7
 10
217.0
 20
0.0
 30
0.0
  0
VERTEX
  5
998
  8
0
 62
     7
 10
213.0
 20
0.0
 30
0.0
  0
VERTEX
  5
999
  8
0
 62
     7
 10
188.0
 20
25.0000000000000284
 30
0.0
  0
SEQEND
  5
99A
  8
0
 62
     7
  0
POLYLINE
  5
8DC
  8
0
 62
     1
 66
     1
 10
0.0
 20
0.0
 30
0.0
 70
     1
  0
VERTEX
  5
99B
  8
0
 62
     1
 10
190.0000003025531896
 20
122.5000000607487038
 30
0.0
  0
VERTEX
  5
99C
  8
0
 62
     1
 10
190.0000003025531896
 20
97.5000000607487181
 30
0.0
  0
VERTEX
  5
99D
  8
0
 62
     1
 10
191.0000003025531896
 20
96.5000000607487181
 30
0.0
  0
VERTEX
  5
99E
  8
0
 62
     1
 10
199.0000003025531896
 20
96.5000000607487181
 30
0.0
  0
VERTEX
  5
99F
  8
0
 62
     1
 10
200.0000003025531896
 20
97.5000000607487181
 30
0.0
  0
VERTEX
  5
9A0
  8
0
 62
     1
 10
200.0000003025531896
 20
122.5000000607487038
 30
0.0
  0
VERTEX
  5
9A1
  8
0
 62
     1
 10
199.0000003025531896
 20
123.5000000607487038
 30
0.0
  0
VERTEX
  5
9A2
  8
0
 62
     1
 10
191.0000003025531896
 20
123.5000000607487038
 30
0.0
  0
SEQEND
  5
9A3
  8
0
 62
     1
  0
ENDSEC
  0
EOF
